<?xml version="1.0" encoding="utf-8"?>
<!-- Generator: Adobe Illustrator 25.3.0, SVG Export Plug-In . SVG Version: 6.00 Build 0)  -->
<svg version="1.1" id="Calque_1" xmlns="http://www.w3.org/2000/svg" xmlns:xlink="http://www.w3.org/1999/xlink" x="0px" y="0px"
	 viewBox="0 0 2964.6 2964.6" style="enable-background:new 0 0 2964.6 2964.6;" xml:space="preserve">
<style type="text/css">
	.st0{opacity:0.15;fill:#2A395E;}
	.st1{opacity:0.13;fill:#40A8D1;}
</style>
<path class="st0" d="M2129.4,1282.5c-6.7-14.2-15.1-25.1-25.7-33.7c-12.1-11-27.1-18.4-45.5-23.8l-351.4-66.3h0l-5.4-1
	c-2.1,1.3-4.2,2.5-6.2,3.8l-670.5,313.8c-184.5,73.7-190.6,152.5-179.1,191.5c0.3,0.6,0.7,1.2,1,1.9c6.7,14.2,15.1,25.1,25.7,33.7
	c12.1,11,27.1,18.4,45.5,23.8l351.4,66.3l0,0l25,4.7l661.2-309.4c197.9-79,190.5-164,176.4-199.3c-3-5.6-6.1-11.2-9.2-16.8
	c0,0,4.9,6.1,9.2,16.8c9.5,17.7,18.5,35,27,52.1C2149.7,1321.5,2139.9,1302.2,2129.4,1282.5z"/>
<path class="st1" d="M1285.6,1802.3c-249.7,153.5-822,338.7-443.9,983.9l899.1-415.9c182.3-81.2,822.8-302.8,382.4-1098
	c0,0,90.7,113.2-167.2,216.1"/>
<path class="st1" d="M2139.9,178.4l-899.1,415.9C1060,674.8,429.2,893.7,848.1,1672.7c-13.4-36.8-15.6-119.5,177.4-196.6
	l670.5-313.8C1945.7,1008.9,2518,823.6,2139.9,178.4z"/>
</svg>
